<svg width="25" height="36" viewBox="0 0 25 36" fill="none" xmlns="http://www.w3.org/2000/svg">
<path d="M12.5 0C5.94063 0 0 5.24629 0 11.7198C0 17.6655 4.57486 24.6705 10.8083 34.3628C11.5985 35.5914 13.4015 35.5914 14.1917 34.3628C20.4251 24.6705 25 17.6655 25 11.7198C25 5.24629 19.0609 0 12.5 0ZM12.5 16.9583C9.91094 16.9583 7.8125 14.8879 7.8125 12.3333C7.8125 9.77879 9.91094 7.70833 12.5 7.70833C15.0891 7.70833 17.1875 9.77879 17.1875 12.3333C17.1875 14.8879 15.0891 16.9583 12.5 16.9583Z" fill="#FF0B29"/>
</svg>
