<svg width="20" height="16" viewBox="0 0 20 16" fill="none" xmlns="http://www.w3.org/2000/svg">
<path fill-rule="evenodd" clip-rule="evenodd" d="M10.9166 7.99984C9.20807 7.99984 7.77247 6.8313 7.36543 5.24984H0.833252V3.4165H7.36543C7.77247 1.83505 9.20807 0.666504 10.9166 0.666504C12.9416 0.666504 14.5833 2.30813 14.5833 4.33317C14.5833 6.35821 12.9416 7.99984 10.9166 7.99984ZM12.7499 4.33317C12.7499 5.34569 11.9291 6.1665 10.9166 6.1665C9.90406 6.1665 9.08325 5.34569 9.08325 4.33317C9.08325 3.32065 9.90406 2.49984 10.9166 2.49984C11.9291 2.49984 12.7499 3.32065 12.7499 4.33317Z" fill="#FF0B29"/>
<path d="M15.4999 3.4165H19.1666V5.24984H15.4999V3.4165Z" fill="#FF0B29"/>
<path fill-rule="evenodd" clip-rule="evenodd" d="M6.33325 15.3332C4.62473 15.3332 3.18914 14.1646 2.7821 12.5832H0.833252V10.7498H2.7821C3.18914 9.16838 4.62473 7.99984 6.33325 7.99984C8.3583 7.99984 9.99992 9.64146 9.99992 11.6665C9.99992 13.6915 8.3583 15.3332 6.33325 15.3332ZM8.16659 11.6665C8.16659 12.679 7.34577 13.4998 6.33325 13.4998C5.32073 13.4998 4.49992 12.679 4.49992 11.6665C4.49992 10.654 5.32073 9.83317 6.33325 9.83317C7.34577 9.83317 8.16659 10.654 8.16659 11.6665Z" fill="#FF0B29"/>
<path d="M10.9166 12.5832H19.1666V10.7498H10.9166V12.5832Z" fill="#FF0B29"/>
</svg>
