<svg width="22" height="22" viewBox="0 0 22 22" fill="none" xmlns="http://www.w3.org/2000/svg">
<path fill-rule="evenodd" clip-rule="evenodd" d="M17.4176 22H4.58423C3.57223 22 2.7509 21.1787 2.7509 20.1667V4.58333H1.83423V2.75H7.33423V1.375C7.33423 0.616917 7.95115 0 8.70923 0H13.2926C14.0488 0 14.6676 0.615083 14.6676 1.375V2.75H20.1676V4.58333H19.2509V20.1667C19.2509 21.1787 18.4296 22 17.4176 22ZM17.4176 4.58333H4.58423V19.7083C4.58423 19.9613 4.78956 20.1667 5.04256 20.1667H16.9592C17.2122 20.1667 17.4176 19.9613 17.4176 19.7083V4.58333ZM9.16756 8.25C9.16756 7.744 8.7569 7.33333 8.2509 7.33333C7.7449 7.33333 7.33423 7.744 7.33423 8.25V16.5C7.33423 17.006 7.7449 17.4167 8.2509 17.4167C8.7569 17.4167 9.16756 17.006 9.16756 16.5V8.25ZM14.6676 8.25C14.6676 7.744 14.2569 7.33333 13.7509 7.33333C13.2449 7.33333 12.8342 7.744 12.8342 8.25V16.5C12.8342 17.006 13.2449 17.4167 13.7509 17.4167C14.2569 17.4167 14.6676 17.006 14.6676 16.5V8.25ZM12.8342 1.83333H9.16756V2.75H12.8342V1.83333Z" fill="black"/>
</svg>
