<svg width="66" height="16" viewBox="0 0 66 16" fill="none" xmlns="http://www.w3.org/2000/svg">
<path fill-rule="evenodd" clip-rule="evenodd" d="M53.9366 5.93626C53.9366 8.97312 51.5462 11.444 48.6078 11.444H42.4355C41.8831 11.444 41.4338 10.9865 41.4338 10.4224C41.4338 9.85733 41.8831 9.39986 42.4355 9.39986H48.6078C50.0707 9.39986 51.3491 8.35562 51.7794 6.95789H41.4275V5.93626C41.4275 2.93828 43.818 0.499023 46.7563 0.499023H52.9349C53.4882 0.499023 53.9366 0.956494 53.9366 1.52065C53.9366 2.08571 53.4882 2.54319 52.9349 2.54319H46.7563C45.2717 2.54319 44.0114 3.54131 43.5856 4.91373H53.9366V5.93626ZM39.1139 11.4522C38.5606 11.4522 38.1122 10.9947 38.1122 10.4296V6.95789H29.6164V10.4296C29.6164 10.9947 29.1679 11.4522 28.6146 11.4522C28.0613 11.4522 27.6129 10.9947 27.6129 10.4296V5.93626C27.6129 2.93828 30.0033 0.499023 32.9416 0.499023H34.7869C37.7252 0.499023 40.1157 2.93828 40.1157 5.93626V10.4296C40.1157 10.9947 39.6672 11.4522 39.1139 11.4522ZM34.7869 2.54319H32.9416C31.4571 2.54319 30.1968 3.54131 29.771 4.91373H37.9585C37.5327 3.54131 36.2714 2.54319 34.7869 2.54319ZM25.9295 9.62769C26.3635 9.97848 26.4376 10.6213 26.094 11.0634C25.8969 11.3193 25.6031 11.4522 25.3075 11.4522C25.0905 11.4522 24.8708 11.3798 24.6872 11.2316L19.3901 6.95789H15.8099V10.4387C15.8099 11.0037 15.3615 11.4612 14.8082 11.4612C14.2549 11.4612 13.8065 11.0037 13.8065 10.4387V5.93626C13.8065 2.93828 16.1969 0.499023 19.1352 0.499023H20.9813C23.9197 0.499023 26.3101 2.93828 26.3101 5.93626V6.95789H22.6205L25.9295 9.62769ZM24.1529 4.91373C23.7262 3.54131 22.4659 2.54319 20.9813 2.54319H19.1352C17.6507 2.54319 16.3904 3.54131 15.9636 4.91373H24.1529ZM2.00348 10.4314C2.00348 10.9965 1.55502 11.454 1.00171 11.454C0.448406 11.454 0 10.9965 0 10.4314L0.00176581 4.91373H1.96822H10.3419C9.9161 3.54131 8.65583 2.54319 7.1713 2.54319H1.00171C0.448406 2.54319 0 2.08571 0 1.52065C0 0.956494 0.448406 0.499023 1.00171 0.499023H7.1713C10.1096 0.499023 12.5 2.93828 12.5 5.93626V6.95789H2.00348V10.4314Z" fill="black"/>
<path fill-rule="evenodd" clip-rule="evenodd" d="M66 10.378C66 13.4094 63.5924 15.8659 60.6215 15.8659C57.6516 15.8659 55.243 13.4094 55.243 10.378C55.243 7.34747 57.6516 4.89014 60.6215 4.89014C63.5924 4.89014 66 7.34747 66 10.378Z" fill="black"/>
</svg>
