<svg width="48" height="48" viewBox="0 0 48 48" fill="none" xmlns="http://www.w3.org/2000/svg">
<path d="M48 0H0V48H48V0Z" fill="#FF0B29"/>
<path d="M18.4529 25.8221L15.8652 19.9972H10.5881L15.8052 31.7513L18.4529 37.6701L21.0823 31.7565L21.0954 31.7409L22.1727 34.1695H26.7742C29.5943 34.1639 32.2974 33.0416 34.292 31.048C36.2865 29.0544 37.4102 26.3518 37.4171 23.5318V23.5057C37.4102 20.9425 36.3884 18.4864 34.5752 16.6747C32.7621 14.863 30.3051 13.8432 27.742 13.8384H23.777L18.4529 25.8221ZM26.7742 29.3306H22.1571L25.9369 20.8293L24.9743 18.672L27.1003 18.6851H27.7316C29.0134 18.6871 30.2422 19.1969 31.149 20.1028C32.0559 21.0087 32.567 22.2369 32.5704 23.5187C32.567 25.0565 31.9547 26.5304 30.8676 27.6181C29.7804 28.7057 28.3068 29.3186 26.769 29.3228L26.7742 29.3306Z" fill="white"/>
</svg>
